<?xml version="1.0" standalone="no"?>
<!DOCTYPE svg PUBLIC "-//W3C//DTD SVG 20010904//EN"
 "http://www.w3.org/TR/2001/REC-SVG-20010904/DTD/svg10.dtd">
<svg version="1.0" xmlns="http://www.w3.org/2000/svg"
 width="3418.000000pt" height="3418.000000pt" viewBox="0 0 3418.000000 3418.000000"
 preserveAspectRatio="xMidYMid meet">
<metadata>
Created by potrace 1.14, written by Peter Selinger 2001-2017
</metadata>
<g transform="translate(0.000000,3418.000000) scale(0.100000,-0.100000)"
fill="#000000" stroke="none">
<path d="M14863 32512 c-7 -4 -10 -23 -8 -45 2 -24 -1 -35 -8 -30 -6 4 -7 1
-2 -7 11 -18 13 -120 1 -113 -5 4 -6 1 -1 -7 4 -7 8 -40 8 -74 -1 -106 -2
-109 -18 -102 -8 3 -14 2 -14 -2 3 -20 -2 -33 -11 -27 -5 3 -10 -1 -10 -9 0
-8 -9 -18 -20 -21 -11 -4 -18 -10 -15 -15 3 -4 -5 -10 -16 -13 -12 -3 -18 -10
-15 -16 4 -6 -5 -13 -20 -17 -19 -5 -22 -9 -12 -15 10 -7 10 -9 -2 -9 -8 0
-26 -13 -40 -29 -13 -17 -28 -28 -32 -25 -5 3 -8 2 -7 -3 3 -19 -2 -33 -12
-33 -5 0 -7 5 -3 12 4 7 3 8 -4 4 -7 -4 -12 -13 -12 -19 0 -14 -35 -47 -50
-47 -5 0 -6 -8 -3 -17 6 -16 5 -17 -13 -3 -10 8 -16 11 -12 6 10 -12 -11 -48
-23 -41 -8 6 -13 -9 -10 -29 1 -5 -5 -6 -14 -3 -9 4 -15 1 -15 -8 0 -8 -7 -15
-16 -15 -8 0 -12 -5 -9 -11 4 -6 -2 -13 -14 -16 -11 -3 -19 -9 -16 -13 3 -5
-4 -11 -15 -15 -11 -4 -18 -11 -15 -16 4 -5 -1 -9 -10 -9 -9 0 -14 -4 -11 -9
3 -4 -4 -17 -17 -27 -12 -10 -16 -12 -9 -4 6 8 12 19 12 24 0 6 -8 -1 -17 -14
-10 -14 -17 -28 -15 -32 2 -8 -14 -12 -31 -9 -5 1 -6 -3 -2 -9 3 -5 -1 -13 -9
-16 -9 -3 -13 -11 -9 -17 4 -6 0 -8 -11 -4 -11 4 -15 3 -11 -4 4 -6 -3 -13
-15 -16 -16 -4 -18 -8 -8 -14 10 -7 10 -9 0 -9 -7 0 -41 -30 -77 -66 -40 -41
-69 -63 -76 -58 -8 5 -9 3 -4 -6 8 -13 -79 -103 -90 -92 -3 3 -5 -2 -5 -11 0
-8 -9 -19 -21 -22 -11 -4 -18 -9 -16 -12 7 -6 -47 -61 -55 -56 -5 2 -8 0 -8
-5 0 -16 -62 -72 -73 -65 -6 3 -7 1 -3 -5 3 -6 -3 -17 -14 -25 -11 -7 -17 -17
-13 -20 3 -4 2 -7 -4 -7 -15 0 -69 -52 -65 -63 2 -5 -4 -7 -13 -4 -9 4 -15 1
-15 -9 0 -9 -5 -12 -12 -8 -8 5 -9 2 -5 -9 3 -10 2 -17 -4 -17 -5 0 -23 -13
-39 -30 -16 -16 -34 -30 -40 -30 -6 0 -8 -5 -5 -10 3 -6 -4 -14 -17 -19 -13
-6 -19 -10 -15 -10 4 -1 2 -7 -5 -15 -7 -8 -16 -12 -20 -9 -5 2 -8 -3 -8 -12
0 -9 -4 -13 -10 -10 -5 3 -10 1 -10 -5 0 -6 -7 -18 -15 -26 -8 -9 -15 -13 -15
-10 0 3 -9 -3 -20 -14 -11 -11 -20 -25 -20 -32 0 -6 -3 -8 -7 -5 -3 4 -13 -2
-20 -13 -8 -11 -20 -17 -26 -14 -7 4 -9 4 -5 0 7 -8 -49 -66 -95 -100 -23 -16
-26 -23 -20 -55 3 -20 6 -47 7 -61 0 -14 8 -30 16 -37 13 -11 13 -12 0 -13
-12 0 -13 -2 -1 -9 7 -5 10 -14 7 -20 -4 -6 -2 -11 5 -11 7 0 4 -6 -7 -14 -15
-12 -17 -17 -6 -27 6 -7 12 -28 12 -45 0 -18 5 -45 11 -61 6 -15 13 -48 16
-73 3 -25 9 -50 14 -56 4 -6 11 -35 15 -65 3 -30 10 -58 15 -63 5 -6 9 -25 9
-42 0 -18 4 -44 10 -59 5 -14 12 -39 15 -55 5 -27 2 -30 -32 -39 -21 -6 -47
-12 -58 -14 -11 -2 -27 -7 -35 -10 -15 -6 -153 -45 -181 -52 -8 -2 -78 -22
-155 -45 -76 -23 -143 -42 -149 -43 -5 -2 -23 -8 -40 -14 -28 -10 -144 -46
-155 -48 -3 0 -30 -9 -60 -20 -30 -10 -59 -20 -65 -21 -5 -1 -60 -20 -122 -42
-62 -22 -115 -37 -118 -34 -3 3 -5 1 -5 -4 0 -5 -21 -16 -47 -23 -27 -8 -52
-16 -58 -20 -5 -3 -14 -6 -20 -7 -15 -3 -177 -63 -200 -74 -11 -5 -74 -30
-140 -55 -66 -25 -139 -55 -162 -65 -24 -11 -49 -20 -56 -20 -7 0 -17 -4 -23
-8 -5 -5 -54 -27 -109 -50 -55 -22 -118 -49 -140 -58 -22 -10 -43 -17 -47 -16
-5 1 -8 -3 -8 -10 0 -6 -3 -8 -7 -5 -3 4 -11 3 -17 -2 -6 -5 -49 -25 -96 -46
-130 -56 -193 -86 -495 -236 -269 -133 -347 -173 -521 -270 -43 -24 -81 -42
-83 -40 -2 1 -7 -1 -10 -6 -3 -4 -26 -19 -51 -32 -25 -13 -50 -28 -56 -32 -6
-5 -37 -23 -70 -40 -32 -17 -66 -38 -75 -45 -8 -8 -19 -14 -22 -14 -22 0 -829
-509 -857 -540 -3 -3 -36 -26 -75 -52 -74 -49 -226 -156 -260 -182 -30 -23
-201 -149 -226 -166 -12 -8 -29 -23 -38 -32 -8 -10 -21 -18 -27 -18 -7 0 -14
-3 -16 -8 -3 -7 -112 -94 -281 -224 -34 -26 -63 -52 -65 -58 -2 -5 -10 -10
-17 -10 -7 0 -15 -3 -17 -8 -1 -4 -30 -30 -63 -57 -33 -28 -65 -54 -71 -60 -6
-5 -30 -26 -54 -45 -23 -19 -55 -46 -71 -60 -15 -14 -47 -41 -69 -60 -22 -19
-53 -46 -69 -60 -15 -14 -58 -52 -96 -85 -346 -307 -898 -859 -1158 -1159 -42
-48 -123 -140 -132 -150 -6 -6 -35 -40 -65 -75 -30 -36 -62 -72 -70 -81 -8 -9
-31 -36 -50 -60 -30 -38 -68 -83 -105 -127 -5 -6 -21 -26 -35 -44 -14 -18 -30
-37 -35 -43 -6 -6 -26 -31 -45 -56 -57 -73 -64 -82 -82 -102 -10 -10 -18 -21
-18 -24 0 -3 -33 -46 -73 -97 -40 -51 -79 -102 -87 -113 -8 -12 -67 -93 -131
-180 -150 -206 -171 -237 -307 -439 -62 -93 -120 -178 -128 -188 -8 -9 -14
-21 -14 -26 0 -5 -6 -16 -13 -23 -7 -7 -24 -32 -37 -55 -13 -24 -27 -43 -32
-43 -4 0 -8 -4 -8 -10 0 -5 -30 -58 -67 -117 -36 -60 -82 -135 -102 -168 -20
-33 -40 -68 -46 -77 -25 -42 -91 -155 -105 -180 -8 -15 -34 -60 -56 -100 -109
-193 -223 -407 -327 -617 -50 -102 -95 -187 -99 -189 -5 -2 -8 -10 -8 -18 0
-7 -15 -44 -34 -81 -19 -38 -45 -93 -59 -123 -72 -159 -90 -198 -104 -230 -9
-19 -24 -53 -34 -76 -11 -22 -19 -44 -19 -48 0 -4 -13 -34 -30 -67 -16 -33
-29 -62 -29 -64 -1 -3 -8 -22 -17 -43 -9 -20 -22 -53 -29 -72 -7 -19 -20 -52
-29 -72 -9 -21 -16 -40 -16 -43 0 -3 -11 -30 -25 -60 -13 -30 -21 -55 -18 -55
3 0 1 -6 -5 -12 -5 -7 -26 -58 -46 -113 -20 -55 -41 -109 -46 -120 -15 -33
-189 -537 -195 -565 -2 -8 -14 -48 -28 -87 -14 -40 -24 -73 -21 -73 3 0 0 -9
-6 -20 -6 -11 -22 -59 -35 -107 -14 -49 -31 -108 -40 -133 -11 -36 -70 -243
-90 -320 -80 -311 -140 -560 -168 -700 -3 -14 -14 -70 -26 -125 -12 -55 -24
-113 -27 -130 -3 -16 -11 -61 -19 -100 -8 -38 -16 -83 -19 -100 -3 -16 -12
-68 -20 -114 -9 -47 -18 -105 -21 -129 -3 -24 -7 -47 -9 -51 -2 -3 -7 -28 -10
-56 -4 -27 -8 -61 -11 -75 -2 -14 -6 -41 -9 -60 -9 -68 -19 -135 -22 -154 -2
-10 -6 -44 -9 -75 -4 -31 -8 -67 -11 -81 -2 -14 -6 -47 -9 -75 -3 -27 -7 -61
-10 -75 -2 -14 -7 -54 -10 -90 -3 -36 -8 -85 -10 -110 -9 -80 -13 -123 -20
-200 -3 -41 -8 -95 -10 -120 -9 -87 -16 -207 -32 -495 -16 -313 -9 -1243 12
-1555 2 -30 6 -95 10 -145 6 -98 13 -185 20 -255 3 -25 7 -74 11 -110 15 -167
17 -190 45 -410 29 -231 29 -233 34 -260 2 -14 7 -45 10 -70 3 -25 10 -70 15
-100 5 -30 11 -73 15 -95 3 -22 7 -51 10 -65 2 -14 6 -36 9 -50 2 -14 7 -41
10 -60 3 -19 8 -46 10 -60 19 -116 131 -661 162 -785 3 -11 7 -31 10 -43 21
-102 186 -721 214 -802 12 -35 102 -323 105 -335 1 -5 5 -17 8 -25 3 -8 31
-91 63 -185 31 -93 61 -174 65 -180 5 -5 9 -16 9 -23 0 -26 192 -526 256 -670
13 -29 24 -56 24 -61 0 -4 6 -21 14 -37 8 -16 28 -63 46 -104 18 -41 42 -97
55 -125 13 -27 41 -90 63 -140 54 -124 242 -512 290 -601 6 -10 13 -26 16 -34
4 -8 21 -42 39 -75 18 -33 54 -98 79 -145 102 -191 125 -231 205 -369 45 -79
83 -145 83 -147 0 -2 34 -58 75 -124 41 -66 75 -122 75 -125 0 -3 5 -11 10
-18 13 -15 106 -160 111 -173 2 -5 29 -47 60 -94 32 -47 59 -96 60 -110 2 -14
9 -28 14 -33 7 -5 7 -10 0 -15 -5 -4 -11 -12 -12 -18 -1 -6 -5 -24 -9 -40 -3
-16 -7 -53 -8 -81 0 -29 -5 -53 -11 -53 -5 0 -3 -5 5 -10 9 -6 11 -10 3 -10
-7 0 -10 -7 -7 -15 4 -8 2 -15 -3 -15 -5 0 -10 -6 -11 -12 -1 -7 -11 -67 -22
-133 -10 -66 -19 -125 -20 -132 0 -6 24 -23 53 -36 52 -25 855 -368 1922 -822
319 -135 594 -252 610 -260 17 -7 289 -123 605 -258 752 -320 1666 -710 2375
-1012 314 -134 692 -295 840 -358 149 -63 531 -226 850 -362 319 -136 765
-326 990 -422 226 -96 424 -180 440 -187 17 -8 242 -104 500 -214 259 -110
1063 -452 1787 -761 724 -309 1319 -561 1322 -561 8 0 58 21 1686 715 784 334
1544 658 1690 720 146 62 951 405 1790 763 839 357 1633 696 1765 752 132 56
512 218 845 360 333 142 850 362 1150 490 678 289 1560 665 2440 1040 633 270
831 354 906 386 l31 13 -8 58 c-5 32 -11 92 -15 133 -3 41 -8 78 -10 81 -2 4
-6 31 -9 60 -9 84 -18 148 -28 194 -2 11 0 26 6 32 5 7 6 13 3 13 -4 0 7 20
24 44 16 25 30 49 30 54 0 6 3 12 8 14 7 3 102 144 102 152 0 3 17 31 38 63
87 131 372 616 372 633 0 4 3 10 8 12 4 2 21 30 37 63 17 33 34 65 38 70 19
23 330 639 399 790 20 44 55 120 77 168 23 49 41 90 41 93 0 2 16 38 35 80 39
85 129 301 200 479 26 66 53 134 61 152 8 17 14 36 14 43 0 6 5 21 12 33 7 12
13 27 14 32 2 9 137 388 151 425 3 8 7 20 8 25 2 6 28 87 58 180 54 166 105
330 133 430 7 28 25 88 38 135 25 86 161 623 170 670 2 14 13 66 25 115 17 76
31 141 57 270 7 34 14 69 19 100 3 17 9 50 15 75 10 49 46 253 55 310 2 19 12
80 21 135 8 55 17 109 18 120 2 11 7 43 11 70 4 28 8 61 10 75 6 40 55 441 60
490 9 87 25 276 30 340 3 36 7 99 10 140 37 475 42 1457 10 1915 -2 22 -6 78
-9 124 -8 120 -16 230 -21 271 -3 19 -7 63 -10 98 -11 132 -15 178 -19 197 -2
11 -7 52 -10 90 -4 39 -9 81 -11 95 -7 49 -13 96 -20 150 -8 67 -33 245 -39
280 -3 14 -10 60 -16 103 -14 97 -14 95 -51 302 -17 94 -33 181 -35 195 -3 14
-7 32 -9 40 -2 8 -7 29 -9 45 -3 17 -17 84 -32 150 -14 66 -28 131 -30 145 -3
13 -14 63 -25 110 -12 47 -22 94 -25 105 -2 11 -6 29 -8 40 -9 36 -74 288
-104 400 -17 61 -38 137 -46 170 -16 56 -28 97 -102 340 -16 50 -29 93 -30 98
-1 4 -2 8 -4 10 -1 1 -3 9 -5 17 -6 27 -142 424 -158 463 -9 20 -13 37 -10 37
3 0 -1 7 -8 17 -8 9 -13 19 -13 22 1 3 -2 16 -7 29 -5 13 -9 26 -9 28 0 3 -11
33 -24 67 -13 34 -47 123 -76 197 -28 74 -57 149 -65 165 -7 17 -29 71 -50
120 -20 50 -45 109 -56 132 -10 24 -19 50 -19 58 0 8 -4 15 -9 15 -5 0 -12 11
-15 25 -4 14 -21 58 -40 98 -18 39 -66 144 -106 232 -82 178 -306 632 -323
654 -6 7 -12 20 -13 28 -2 8 -9 22 -16 31 -8 10 -20 30 -28 47 -14 27 -58 109
-122 225 -14 25 -40 72 -58 105 -18 33 -41 72 -51 87 -11 14 -19 29 -19 33 0
4 -8 19 -19 33 -28 40 -71 115 -78 135 -3 9 -9 17 -14 17 -5 0 -9 6 -9 14 0 8
-3 16 -7 18 -5 2 -19 24 -32 51 -13 26 -28 47 -33 47 -4 0 -8 5 -8 11 0 12
-101 173 -112 177 -5 2 -8 8 -8 13 0 6 -18 37 -40 69 -22 32 -40 62 -40 65 0
3 -9 15 -20 27 -11 12 -20 28 -20 35 0 7 -3 13 -7 13 -5 0 -21 23 -38 51 -16
27 -40 62 -52 77 -13 15 -23 32 -23 38 0 7 -7 15 -16 18 -8 3 -13 10 -10 15 4
5 3 11 -1 13 -11 5 -113 147 -113 157 0 5 -3 11 -7 13 -5 2 -37 44 -73 93 -35
50 -68 95 -72 100 -5 6 -52 69 -106 140 -141 188 -391 507 -412 525 -3 3 -28
32 -55 65 -48 59 -62 74 -175 205 -30 34 -63 72 -73 84 -15 18 -95 107 -175
195 -222 246 -762 786 -948 948 -26 23 -159 141 -188 168 -12 11 -49 43 -81
70 -33 28 -69 60 -82 71 -12 12 -24 19 -27 16 -3 -3 -6 -1 -6 5 0 5 -26 30
-57 55 -32 25 -68 54 -79 64 -47 41 -118 100 -138 114 -12 8 -26 19 -32 25 -6
5 -28 24 -49 40 -21 17 -52 41 -69 55 -40 32 -43 35 -158 124 -54 42 -102 76
-107 76 -5 0 -11 7 -15 15 -3 8 -10 15 -16 15 -9 0 -35 19 -65 48 -8 6 -16 12
-20 12 -4 0 -13 6 -20 13 -51 46 -529 377 -545 377 -6 0 -10 4 -10 8 0 5 -12
15 -27 23 -16 8 -30 16 -33 19 -11 13 -283 185 -310 197 -8 4 -17 10 -20 13
-3 4 -30 22 -60 39 -75 43 -94 55 -100 61 -5 5 -25 17 -99 57 -25 14 -53 32
-62 39 -8 8 -19 14 -22 14 -4 0 -37 18 -73 40 -36 22 -68 40 -70 40 -2 0 -26
14 -55 30 -28 17 -95 54 -148 82 -53 28 -126 68 -162 88 -68 38 -580 293 -704
350 -38 18 -110 50 -160 72 -49 22 -106 48 -125 56 -19 9 -37 16 -40 17 -3 1
-22 9 -42 18 -169 75 -489 202 -778 309 -30 11 -68 25 -85 31 -16 7 -32 12
-35 13 -3 0 -12 4 -20 7 -24 10 -459 156 -468 157 -4 0 -52 14 -107 31 -193
59 -420 126 -458 134 -10 2 -51 13 -91 24 -40 11 -86 23 -102 26 -38 8 -58 13
-61 15 -4 3 -9 4 -48 14 -16 4 -48 12 -70 17 -22 6 -49 12 -60 14 -11 2 -20 4
-20 5 0 1 -7 3 -15 5 -8 1 -49 10 -90 19 -41 9 -86 19 -100 22 -14 3 -41 9
-60 14 -40 10 -69 16 -158 33 -62 11 -62 11 -57 42 11 68 14 81 24 110 18 55
34 127 43 193 1 6 5 12 10 12 4 0 8 11 8 23 0 16 -9 28 -25 35 -27 12 -33 40
-13 60 9 9 9 12 0 12 -6 0 -9 7 -6 15 4 8 11 12 16 9 6 -4 5 3 -1 15 -8 15 -9
21 -1 21 6 0 9 4 5 9 -3 6 3 14 12 20 14 8 15 10 3 11 -12 0 -13 2 -1 9 10 7
11 12 1 27 -10 17 -11 17 -6 1 3 -11 2 -15 -4 -12 -6 3 -10 14 -11 23 0 11 -2
13 -6 4 -3 -9 -12 -5 -28 13 -13 14 -29 25 -36 25 -9 0 -9 3 0 14 10 12 9 13
-8 9 -13 -3 -24 2 -33 16 -7 12 -19 21 -27 21 -8 0 -12 3 -8 6 6 7 -17 34 -29
34 -11 0 -52 48 -46 54 3 3 -2 6 -12 6 -20 0 -46 23 -46 40 0 6 -4 9 -8 6 -5
-3 -14 4 -22 14 -8 10 -17 17 -22 14 -4 -3 -8 2 -8 10 0 9 -6 15 -12 13 -7 -1
-12 4 -11 11 2 6 -4 12 -12 12 -8 0 -15 5 -15 10 0 6 -7 10 -16 10 -8 0 -12 5
-9 10 3 6 0 10 -8 10 -7 0 -20 11 -27 25 -7 14 -19 25 -26 25 -7 0 -18 8 -23
18 -6 9 -11 13 -11 9 0 -5 -7 -1 -16 7 -8 9 -12 22 -8 28 4 7 4 10 -1 6 -11
-10 -65 23 -65 39 0 12 -13 17 -32 14 -5 0 -8 3 -8 9 0 12 -48 60 -60 60 -6 0
-15 9 -22 20 -7 11 -18 20 -25 20 -6 0 -15 9 -18 20 -3 11 -13 20 -21 20 -8 0
-14 5 -14 11 0 5 -5 7 -10 4 -6 -4 -10 -3 -9 2 4 21 -2 32 -15 27 -9 -3 -17 3
-21 15 -3 12 -11 21 -16 21 -6 0 -7 6 -3 13 5 8 2 8 -9 -2 -9 -7 -17 -10 -17
-5 0 5 -11 22 -25 38 -14 16 -25 25 -25 21 0 -4 -9 2 -20 15 -11 13 -20 28
-20 34 0 6 -4 5 -9 -3 -7 -11 -10 -9 -16 8 -4 13 -9 20 -12 17 -3 -2 -18 8
-33 24 -15 16 -31 26 -34 23 -3 -4 -6 2 -6 12 0 10 -3 16 -6 12 -4 -3 -29 17
-58 46 -28 28 -53 51 -56 50 -3 0 -4 3 -3 8 3 8 -11 13 -29 10 -5 0 -8 6 -8
15 0 8 -13 20 -30 25 -28 10 -35 20 -30 44 1 5 -2 7 -6 3 -4 -5 -13 1 -21 12
-8 11 -19 20 -25 20 -15 0 -57 47 -49 55 3 4 2 6 -4 5 -22 -5 -34 1 -40 20 -4
11 -11 18 -16 15 -5 -4 -12 1 -15 9 -3 9 -12 16 -20 16 -13 0 -19 13 -15 33 1
5 -3 6 -8 3 -5 -4 -12 -2 -16 4 -4 6 -11 7 -17 4 -7 -4 -8 -2 -4 4 4 7 2 12
-4 12 -6 0 -9 4 -6 9 3 5 -1 12 -10 15 -10 4 -13 2 -8 -6 5 -7 3 -8 -5 -4 -7
5 -10 14 -7 22 3 8 0 11 -8 8 -7 -3 -29 13 -48 35 -19 22 -38 38 -40 35 -9 -8
-15 37 -17 120 -1 43 -6 86 -11 95 -5 10 -4 24 1 34 6 9 6 17 2 17 -4 0 -7 19
-5 42 1 24 3 50 2 58 0 8 0 27 0 41 l0 25 -1707 2 c-940 1 -1713 -2 -1720 -6z"/>
<path d="M28318 6254 c-16 -8 -28 -16 -28 -18 0 -9 40 7 51 20 14 17 11 17
-23 -2z"/>
<path d="M28105 6160 c-3 -6 1 -7 9 -4 18 7 21 14 7 14 -6 0 -13 -4 -16 -10z"/>
<path d="M28055 6139 c-4 -6 -5 -12 -2 -15 2 -3 7 2 10 11 7 17 1 20 -8 4z"/>
<path d="M27668 5973 c7 -3 16 -2 19 1 4 3 -2 6 -13 5 -11 0 -14 -3 -6 -6z"/>
<path d="M27225 5780 c-3 -6 1 -7 9 -4 18 7 21 14 7 14 -6 0 -13 -4 -16 -10z"/>
</g>
</svg>
